HIERARCHY
ROOT newVegas:Hips
{
	OFFSET 0.000000 96.479958 0.000000
	CHANNELS 6 Xposition Yposition Zposition Xrotation Yrotation Zrotation
	JOINT newVegas:Pelvis
	{
		OFFSET 0.000000 0.000000 0.000000
		CHANNELS 3 Xrotation Yrotation Zrotation
		JOINT newVegas:LeftUpLeg
		{
			OFFSET 18.735201 -5.666702 -4.541200
			CHANNELS 3 Xrotation Yrotation Zrotation
			JOINT newVegas:LeftLeg
			{
				OFFSET -0.021200 -31.938179 0.493100
				CHANNELS 3 Xrotation Yrotation Zrotation
				JOINT newVegas:LeftFoot
				{
					OFFSET 0.021200 -31.938179 -4.336299
					CHANNELS 3 Xrotation Yrotation Zrotation
					JOINT newVegas:LeftToeBase
					{
						OFFSET 0.943001 -26.722000 15.023500
						CHANNELS 3 Xrotation Yrotation Zrotation
						End Site
						{
							OFFSET 0.000000 30.670183 0.000000
						}
					}
				}
				JOINT newVegas:Left_PantLeg
				{
					OFFSET 0.663870 -9.044666 -1.108900
					CHANNELS 3 Xrotation Yrotation Zrotation
					End Site
					{
						OFFSET 1.415995 20.635357 0.000000
					}
				}
			}
		}
		JOINT newVegas:RightUpLeg
		{
			OFFSET -18.735201 -5.666702 -4.541200
			CHANNELS 3 Xrotation Yrotation Zrotation
			JOINT newVegas:RightLeg
			{
				OFFSET 0.018946 -31.938133 0.493100
				CHANNELS 3 Xrotation Yrotation Zrotation
				JOINT newVegas:RightFoot
				{
					OFFSET -0.018946 -31.938126 -4.336299
					CHANNELS 3 Xrotation Yrotation Zrotation
					JOINT newVegas:RightToeBase
					{
						OFFSET -0.943001 -26.722004 15.023500
						CHANNELS 3 Xrotation Yrotation Zrotation
						End Site
						{
							OFFSET 0.000000 30.670187 0.000000
						}
					}
				}
				JOINT newVegas:Right_PantLeg
				{
					OFFSET -0.661674 -9.044716 -1.108900
					CHANNELS 3 Xrotation Yrotation Zrotation
					End Site
					{
						OFFSET -1.415958 20.635269 0.000000
					}
				}
			}
		}
	}
	JOINT newVegas:Spine
	{
		OFFSET 0.000000 10.199997 -0.299500
		CHANNELS 3 Xrotation Yrotation Zrotation
		JOINT newVegas:Spine1
		{
			OFFSET 0.000000 11.900002 -1.516600
			CHANNELS 3 Xrotation Yrotation Zrotation
			JOINT newVegas:Spine2
			{
				OFFSET 0.000000 13.600006 -2.842500
				CHANNELS 3 Xrotation Yrotation Zrotation
				JOINT newVegas:Neck
				{
					OFFSET 0.000000 9.624100 -2.890100
					CHANNELS 3 Xrotation Yrotation Zrotation
					JOINT newVegas:Head
					{
						OFFSET 0.000000 14.068802 -1.351900
						CHANNELS 3 Xrotation Yrotation Zrotation
						JOINT newVegas:Hair_Back
						{
							OFFSET 0.000000 3.231903 -17.524799
							CHANNELS 3 Xrotation Yrotation Zrotation
							End Site
							{
								OFFSET 0.000000 19.849884 0.000000
							}
						}
						JOINT newVegas:Hair_Front
						{
							OFFSET 0.000000 31.260406 4.573800
							CHANNELS 3 Xrotation Yrotation Zrotation
							JOINT newVegas:Hair_Front1
							{
								OFFSET 0.000000 2.284103 11.993300
								CHANNELS 3 Xrotation Yrotation Zrotation
								JOINT newVegas:Hair_Front2
								{
									OFFSET 0.000000 2.284103 11.993300
									CHANNELS 3 Xrotation Yrotation Zrotation
									End Site
									{
										OFFSET 0.000000 12.208862 0.000000
									}
								}
							}
						}
						JOINT newVegas:Jowel
						{
							OFFSET 0.000000 -7.458206 6.864100
							CHANNELS 3 Xrotation Yrotation Zrotation
							End Site
							{
								OFFSET 0.000000 19.849884 0.000000
							}
						}
					}
				}
				JOINT newVegas:LeftShoulder
				{
					OFFSET 15.263000 10.923401 -0.547700
					CHANNELS 3 Xrotation Yrotation Zrotation
					JOINT newVegas:LeftArm
					{
						OFFSET 25.438599 -2.830597 -13.032500
						CHANNELS 3 Xrotation Yrotation Zrotation
						JOINT newVegas:LeftForeArm
						{
							OFFSET 29.960503 0.000000 0.000000
							CHANNELS 3 Xrotation Yrotation Zrotation
							JOINT newVegas:LeftHand
							{
								OFFSET 27.849251 0.000000 0.000000
								CHANNELS 3 Xrotation Yrotation Zrotation
								JOINT newVegas:LeftHandThumb1
								{
									OFFSET 4.487587 -3.305161 6.305391
									CHANNELS 3 Xrotation Yrotation Zrotation
									JOINT newVegas:LeftHandThumb2
									{
										OFFSET 5.480453 -3.164139 3.164143
										CHANNELS 3 Xrotation Yrotation Zrotation
										JOINT newVegas:LeftHandThumb3
										{
											OFFSET 5.159721 -2.978973 2.978967
											CHANNELS 3 Xrotation Yrotation Zrotation
											End Site
											{
												OFFSET 2.494507 5.926697 1.738678
											}
										}
									}
								}
								JOINT newVegas:LeftHandIndex1
								{
									OFFSET 18.578728 -0.527832 5.208049
									CHANNELS 3 Xrotation Yrotation Zrotation
									JOINT newVegas:LeftHandIndex2
									{
										OFFSET 3.192009 0.000000 0.000000
										CHANNELS 3 Xrotation Yrotation Zrotation
										JOINT newVegas:LeftHandIndex3
										{
											OFFSET 3.835129 0.000000 0.000000
											CHANNELS 3 Xrotation Yrotation Zrotation
											End Site
											{
												OFFSET -0.034599 3.816971 0.371180
											}
										}
									}
								}
								JOINT newVegas:LeftHandMiddle1
								{
									OFFSET 18.476105 0.000000 0.000000
									CHANNELS 3 Xrotation Yrotation Zrotation
									JOINT newVegas:LeftHandMiddle2
									{
										OFFSET 3.324875 0.000000 0.000000
										CHANNELS 3 Xrotation Yrotation Zrotation
										JOINT newVegas:LeftHandMiddle3
										{
											OFFSET 4.596550 0.000000 0.000000
											CHANNELS 3 Xrotation Yrotation Zrotation
											End Site
											{
												OFFSET 0.057701 4.578827 0.399218
											}
										}
									}
								}
								JOINT newVegas:LeftHandRing1
								{
									OFFSET 17.732719 0.121887 -4.201567
									CHANNELS 3 Xrotation Yrotation Zrotation
									JOINT newVegas:LeftHandRing2
									{
										OFFSET 2.733170 0.000000 0.000000
										CHANNELS 3 Xrotation Yrotation Zrotation
										JOINT newVegas:LeftHandRing3
										{
											OFFSET 3.178268 0.000000 0.000000
											CHANNELS 3 Xrotation Yrotation Zrotation
											End Site
											{
												OFFSET 0.119102 3.170624 0.185394
											}
										}
									}
								}
								JOINT newVegas:LeftHandPinky1
								{
									OFFSET 15.989624 -0.606689 -7.535461
									CHANNELS 3 Xrotation Yrotation Zrotation
									JOINT newVegas:LeftHandPinky2
									{
										OFFSET 2.538986 0.000000 0.000000
										CHANNELS 3 Xrotation Yrotation Zrotation
										JOINT newVegas:LeftHandPinky3
										{
											OFFSET 2.593102 0.000000 0.000000
											CHANNELS 3 Xrotation Yrotation Zrotation
											End Site
											{
												OFFSET -0.150902 2.584198 0.152708
											}
										}
									}
								}
							}
							JOINT newVegas:Left_Sleeve
							{
								OFFSET 0.267448 -0.649796 0.577675
								CHANNELS 3 Xrotation Yrotation Zrotation
								End Site
								{
									OFFSET 0.000000 15.991241 0.000000
								}
							}
							JOINT newVegas:Left_CapeC
							{
								OFFSET 15.715958 -8.608795 -6.935905
								CHANNELS 3 Xrotation Yrotation Zrotation
								JOINT newVegas:Left_CapeC1
								{
									OFFSET 0.000000 -8.688499 0.000000
									CHANNELS 3 Xrotation Yrotation Zrotation
									End Site
									{
										OFFSET 0.000000 8.688499 0.000000
									}
								}
							}
						}
						JOINT newVegas:Left_CapeB
						{
							OFFSET 26.118385 -8.608795 -7.079235
							CHANNELS 3 Xrotation Yrotation Zrotation
							JOINT newVegas:Left_CapeB1
							{
								OFFSET 0.000000 -8.688499 0.000000
								CHANNELS 3 Xrotation Yrotation Zrotation
								End Site
								{
									OFFSET 0.000000 8.688499 0.000000
								}
							}
						}
						JOINT newVegas:Left_CapeA
						{
							OFFSET 5.115639 -8.608795 -10.395809
							CHANNELS 3 Xrotation Yrotation Zrotation
							JOINT newVegas:Left_CapeA1
							{
								OFFSET 0.000000 -8.688499 0.000000
								CHANNELS 3 Xrotation Yrotation Zrotation
								End Site
								{
									OFFSET 0.000000 8.688499 0.000000
								}
							}
						}
					}
				}
				JOINT newVegas:RightShoulder
				{
					OFFSET -15.263000 10.923401 -0.547700
					CHANNELS 3 Xrotation Yrotation Zrotation
					JOINT newVegas:RightArm
					{
						OFFSET -25.438599 -2.830597 -13.032500
						CHANNELS 3 Xrotation Yrotation Zrotation
						JOINT newVegas:RightForeArm
						{
							OFFSET -29.960503 0.000000 0.000000
							CHANNELS 3 Xrotation Yrotation Zrotation
							JOINT newVegas:RightHand
							{
								OFFSET -27.849251 0.000000 0.000000
								CHANNELS 3 Xrotation Yrotation Zrotation
								JOINT newVegas:RightHandThumb1
								{
									OFFSET -4.487587 -3.305161 6.305391
									CHANNELS 3 Xrotation Yrotation Zrotation
									JOINT newVegas:RightHandThumb2
									{
										OFFSET -5.480453 -3.164139 3.164143
										CHANNELS 3 Xrotation Yrotation Zrotation
										JOINT newVegas:RightHandThumb3
										{
											OFFSET -5.159721 -2.978973 2.978967
											CHANNELS 3 Xrotation Yrotation Zrotation
											End Site
											{
												OFFSET -2.494507 5.926697 1.738678
											}
										}
									}
								}
								JOINT newVegas:RightHandIndex1
								{
									OFFSET -18.578728 -0.527832 5.208049
									CHANNELS 3 Xrotation Yrotation Zrotation
									JOINT newVegas:RightHandIndex2
									{
										OFFSET -3.192009 0.000000 0.000000
										CHANNELS 3 Xrotation Yrotation Zrotation
										JOINT newVegas:RightHandIndex3
										{
											OFFSET -3.835129 0.000000 0.000000
											CHANNELS 3 Xrotation Yrotation Zrotation
											End Site
											{
												OFFSET 0.034599 3.816971 0.371180
											}
										}
									}
								}
								JOINT newVegas:RightHandMiddle1
								{
									OFFSET -18.476105 0.000000 0.000000
									CHANNELS 3 Xrotation Yrotation Zrotation
									JOINT newVegas:RightHandMiddle2
									{
										OFFSET -3.324875 0.000000 0.000000
										CHANNELS 3 Xrotation Yrotation Zrotation
										JOINT newVegas:RightHandMiddle3
										{
											OFFSET -4.596550 0.000000 0.000000
											CHANNELS 3 Xrotation Yrotation Zrotation
											End Site
											{
												OFFSET -0.057701 4.578827 0.399218
											}
										}
									}
								}
								JOINT newVegas:RightHandRing1
								{
									OFFSET -17.732719 0.121887 -4.201567
									CHANNELS 3 Xrotation Yrotation Zrotation
									JOINT newVegas:RightHandRing2
									{
										OFFSET -2.733170 0.000000 0.000000
										CHANNELS 3 Xrotation Yrotation Zrotation
										JOINT newVegas:RightHandRing3
										{
											OFFSET -3.178268 0.000000 0.000000
											CHANNELS 3 Xrotation Yrotation Zrotation
											End Site
											{
												OFFSET -0.119102 3.170624 0.185394
											}
										}
									}
								}
								JOINT newVegas:RightHandPinky1
								{
									OFFSET -15.989624 -0.606689 -7.535461
									CHANNELS 3 Xrotation Yrotation Zrotation
									JOINT newVegas:RightHandPinky2
									{
										OFFSET -2.538986 0.000000 0.000000
										CHANNELS 3 Xrotation Yrotation Zrotation
										JOINT newVegas:RightHandPinky3
										{
											OFFSET -2.593102 0.000000 0.000000
											CHANNELS 3 Xrotation Yrotation Zrotation
											End Site
											{
												OFFSET 0.150902 2.584198 0.152708
											}
										}
									}
								}
							}
							JOINT newVegas:Right_CapeC
							{
								OFFSET -15.715958 -8.608795 -6.935905
								CHANNELS 3 Xrotation Yrotation Zrotation
								JOINT newVegas:Right_CapeC1
								{
									OFFSET 0.000000 -8.688499 0.000000
									CHANNELS 3 Xrotation Yrotation Zrotation
									End Site
									{
										OFFSET 0.000000 8.688499 0.000000
									}
								}
							}
							JOINT newVegas:Right_Sleeve
							{
								OFFSET -0.267448 -0.649994 0.577675
								CHANNELS 3 Xrotation Yrotation Zrotation
								End Site
								{
									OFFSET 0.000000 15.991302 0.000000
								}
							}
						}
						JOINT newVegas:Right_CapeA
						{
							OFFSET -5.115540 -8.608795 -10.395824
							CHANNELS 3 Xrotation Yrotation Zrotation
							JOINT newVegas:Right_CapeA1
							{
								OFFSET 0.000000 -8.688499 0.000000
								CHANNELS 3 Xrotation Yrotation Zrotation
								End Site
								{
									OFFSET 0.000000 8.688499 0.000000
								}
							}
						}
						JOINT newVegas:Right_CapeB
						{
							OFFSET -26.118187 -8.608795 -7.079266
							CHANNELS 3 Xrotation Yrotation Zrotation
							JOINT newVegas:Right_CapeB1
							{
								OFFSET 0.000000 -8.688499 0.000000
								CHANNELS 3 Xrotation Yrotation Zrotation
								End Site
								{
									OFFSET 0.000000 8.688499 0.000000
								}
							}
						}
					}
				}
				JOINT newVegas:Left_Collar
				{
					OFFSET 18.625099 8.655502 8.828100
					CHANNELS 3 Xrotation Yrotation Zrotation
					JOINT newVegas:Left_Collar1
					{
						OFFSET 14.783401 10.540405 -1.259500
						CHANNELS 3 Xrotation Yrotation Zrotation
						End Site
						{
							OFFSET 0.000000 18.199875 0.000000
						}
					}
				}
				JOINT newVegas:Collar_Back
				{
					OFFSET 0.000000 15.630707 -20.132601
					CHANNELS 3 Xrotation Yrotation Zrotation
					End Site
					{
						OFFSET 0.000000 22.523010 0.000000
					}
				}
				JOINT newVegas:Left_Peck
				{
					OFFSET 17.239599 -5.132599 25.482599
					CHANNELS 3 Xrotation Yrotation Zrotation
					End Site
					{
						OFFSET 0.000000 22.523010 0.000000
					}
				}
				JOINT newVegas:Right_Peck
				{
					OFFSET -17.239599 -5.132202 25.482599
					CHANNELS 3 Xrotation Yrotation Zrotation
					End Site
					{
						OFFSET 0.000000 22.523010 0.000000
					}
				}
				JOINT newVegas:Right_Collar
				{
					OFFSET -18.625099 8.655792 8.828100
					CHANNELS 3 Xrotation Yrotation Zrotation
					JOINT newVegas:Right_Collar1
					{
						OFFSET -14.783401 10.539993 -1.259500
						CHANNELS 3 Xrotation Yrotation Zrotation
						End Site
						{
							OFFSET 0.000000 18.199631 0.000000
						}
					}
				}
			}
		}
		JOINT newVegas:Belly
		{
			OFFSET 0.000000 -6.540398 9.014299
			CHANNELS 3 Xrotation Yrotation Zrotation
			End Site
			{
				OFFSET 0.000000 11.566666 0.000000
			}
		}
	}
	JOINT newVegas:ElvisFacialAnim_Joint
	{
		OFFSET 1.000000 -95.330101 -8.825800
		CHANNELS 3 Xrotation Yrotation Zrotation
		End Site
		{
			OFFSET 0.000000 35.315800 0.000000
		}
	}
}
MOTION
Frames: 4
Frame Time: 0.033333
-0.906591 54.632790 262.508392 10.874648 -12.326768 -13.069323 -0.000000 -0.000000 0.000001 -32.669085 -7.412129 19.249123 94.670049 -11.600345 -11.506250 31.374771 -2.833903 13.005729 -0.000001 0.000000 -0.000003 0.000000 0.000001 -0.000000 -102.636911 -29.687168 3.377167 69.358092 30.522688 -16.893177 23.598684 -1.497747 13.743773 0.000000 -0.000000 -0.000000 -0.000001 -0.000002 -0.000001 19.512582 -10.697627 5.598651 4.485551 -9.947197 8.330574 4.415152 -9.850825 8.489285 0.332301 2.617293 -0.343801 0.332313 2.617297 -0.343809 -0.000001 -0.000000 -0.000000 0.332297 2.617287 -0.343800 0.332365 2.617313 -0.343803 -0.000000 -0.000001 -0.000000 -0.000001 -0.000000 -0.000001 0.626535 -43.084874 -2.962830 -49.070972 -31.790511 -42.807480 2.612627 -83.045203 -10.317701 60.035765 38.783347 -77.368005 16.185491 29.318423 -23.146355 0.081683 -3.109423 31.629650 0.000002 -0.000000 -0.000005 0.016538 0.020180 -62.650771 3.417420 -3.814597 -92.040474 -0.000001 -0.000001 -0.000002 -2.970159 0.498637 -81.883436 4.290163 -12.059112 -50.765453 -0.000003 0.000000 -0.000000 -10.611404 20.760920 -73.187751 4.781190 -0.851399 -40.707439 -0.000001 -0.000001 0.000001 -8.914876 5.703432 -58.965283 -6.266483 -4.572919 -37.196193 -0.000001 -0.000002 0.000002 -0.000001 -0.000002 0.000000 -0.000001 -0.000002 0.000000 -0.000002 -0.000001 0.000001 0.000001 0.000003 -0.000001 0.000001 0.000002 -0.000002 0.000001 0.000003 -0.000001 -0.000000 0.000002 0.000000 1.797859 21.077988 7.223096 -22.577136 5.413884 63.613506 -5.506893 99.516205 -11.308328 -85.724058 63.057099 7.011893 -6.666414 -8.246970 4.694920 31.152476 -25.871683 -9.425337 0.000002 0.000000 -0.000002 -4.887998 -9.034013 55.242597 0.234217 0.161431 104.710318 -0.000000 0.000001 0.000000 2.578527 -5.315547 71.485504 -14.334713 4.170144 107.253716 0.000000 0.000000 0.000001 -9.235588 -17.082802 80.313756 0.979615 -0.049173 88.783833 -0.000001 0.000002 -0.000000 -10.019150 -21.702581 80.947044 2.834989 1.205258 62.935487 0.000000 -0.000000 0.000000 -0.000000 0.000001 0.000004 -0.000000 0.000002 0.000005 -0.000001 0.000002 0.000005 -0.000000 0.000000 -0.000000 0.000000 0.000000 -0.000000 -0.000000 0.000000 -0.000000 -0.000000 -0.000000 -0.000000 -0.000000 0.000003 -0.000000 -0.000000 0.000003 -0.000000 -0.000000 0.000003 -0.000000 -0.000000 0.000003 -0.000000 -0.000000 0.000003 -0.000000 -0.000000 0.000003 -0.000000 -0.000000 0.000003 -0.000000 -0.000001 0.000000 -0.000000 -0.000000 -0.000000 0.000001 
-1.709564 54.260757 265.739136 10.552243 -7.754097 -14.461519 0.000001 -0.000000 0.000000 -35.394853 -11.218429 18.850969 95.470376 -12.760583 -8.768583 37.297255 -4.057329 11.775588 0.000000 0.000002 -0.000000 -0.000001 0.000000 0.000000 -105.973984 -32.939557 -1.782084 77.809051 27.776644 -18.626788 23.269775 -3.330611 9.811416 -0.000000 0.000000 0.000000 0.000001 0.000001 -0.000000 19.072233 -9.018090 4.886364 4.245293 -8.898117 8.232041 4.131105 -8.825981 8.354866 0.123754 2.305683 -0.363167 0.123748 2.305697 -0.363172 -0.000001 0.000003 -0.000002 0.123740 2.305703 -0.363167 0.123742 2.305693 -0.363162 -0.000001 0.000002 -0.000002 -0.000001 0.000003 -0.000001 1.316245 -40.528280 0.636411 -47.675636 -30.289410 -40.502527 0.942518 -82.254390 -4.606291 53.194394 35.417960 -77.888219 16.185486 29.318416 -23.146335 0.081681 -3.109427 31.629670 0.000001 -0.000001 -0.000001 0.016547 0.020182 -62.650737 3.417405 -3.814591 -92.040481 -0.000000 0.000001 0.000002 -2.970156 0.498630 -81.883429 4.290158 -12.059111 -50.765460 0.000004 -0.000000 0.000001 -10.611413 20.760918 -73.187745 4.781171 -0.851420 -40.707456 -0.000000 -0.000001 -0.000000 -8.914876 5.703436 -58.965262 -6.266477 -4.572917 -37.196199 -0.000002 -0.000008 -0.000000 0.000001 -0.000001 -0.000000 0.000001 -0.000001 -0.000000 0.000000 -0.000001 -0.000000 -0.000000 -0.000001 -0.000003 -0.000001 -0.000001 -0.000003 -0.000000 -0.000001 -0.000003 -0.000002 -0.000002 -0.000003 -5.502733 34.488299 3.712536 -17.075329 1.488646 66.124714 -0.967753 102.428078 -23.898917 -64.775772 52.613463 -10.849989 -6.666411 -8.246975 4.694912 31.152459 -25.871679 -9.425331 0.000000 -0.000002 -0.000001 -4.888004 -9.034012 55.242580 0.234219 0.161418 104.710290 -0.000002 0.000001 -0.000000 2.578521 -5.315555 71.485504 -14.334708 4.170149 107.253702 0.000000 0.000002 0.000004 -9.235593 -17.082814 80.313770 0.979615 -0.049173 88.783833 -0.000000 -0.000001 -0.000002 -10.019145 -21.702593 80.947038 2.834989 1.205263 62.935487 -0.000000 0.000002 0.000001 0.000000 0.000000 0.000002 -0.000000 -0.000001 0.000002 0.000000 0.000000 0.000002 0.000000 0.000000 -0.000001 -0.000000 0.000000 -0.000000 0.000000 0.000000 -0.000001 -0.000000 -0.000000 -0.000000 0.000000 -0.000000 -0.000000 0.000000 -0.000000 -0.000000 0.000000 -0.000000 -0.000000 0.000000 -0.000000 -0.000000 0.000000 -0.000000 -0.000000 0.000000 -0.000000 -0.000000 0.000000 -0.000000 -0.000000 0.000000 0.000001 0.000001 0.000001 -0.000000 0.000000 
-2.460938 53.651237 267.862274 8.924821 -3.061825 -15.301652 -0.000001 0.000000 -0.000001 -39.617618 -12.338910 16.784403 96.401461 -11.961620 -3.102507 46.801761 -3.989039 10.125412 -0.000001 0.000000 -0.000002 0.000001 -0.000001 -0.000000 -109.115878 -32.003104 -6.503328 86.269483 23.836761 -17.381889 18.114070 -4.510938 5.360510 0.000000 -0.000000 0.000000 -0.000000 -0.000002 -0.000001 19.220924 -6.107901 4.171813 4.165529 -7.176728 7.602986 4.124455 -7.079364 7.685164 -0.065353 1.855109 -0.453785 -0.065367 1.855108 -0.453780 0.000000 0.000001 -0.000001 -0.065337 1.855097 -0.453787 -0.065289 1.855132 -0.453791 -0.000002 -0.000001 -0.000000 0.000000 0.000001 -0.000001 2.245426 -41.242601 7.604128 -45.780528 -28.675392 -37.620726 0.266254 -74.306878 1.733639 38.621858 33.140368 -79.472830 16.185510 29.318413 -23.146336 0.081674 -3.109433 31.629663 -0.000000 0.000002 0.000001 0.016555 0.020185 -62.650757 3.417429 -3.814601 -92.040494 -0.000006 0.000000 -0.000001 -2.970143 0.498640 -81.883422 4.290162 -12.059099 -50.765463 -0.000003 -0.000002 0.000001 -10.611396 20.760923 -73.187751 4.781172 -0.851400 -40.707456 -0.000000 -0.000002 0.000000 -8.914859 5.703439 -58.965276 -6.266465 -4.572911 -37.196203 -0.000001 -0.000003 -0.000002 0.000004 0.000000 0.000001 0.000004 0.000000 0.000001 0.000003 0.000000 0.000001 0.000000 -0.000001 0.000003 -0.000001 -0.000002 0.000002 0.000000 -0.000001 0.000003 -0.000001 -0.000003 0.000002 -10.274085 38.422078 1.091596 -18.583743 2.717065 66.845019 4.720166 97.136587 -34.664665 -66.855982 40.991490 -10.363299 -6.666423 -8.246984 4.694909 31.152465 -25.871693 -9.425320 0.000002 -0.000001 0.000001 -4.888013 -9.034020 55.242594 0.234212 0.161416 104.710318 0.000002 -0.000002 -0.000000 2.578516 -5.315565 71.485525 -14.334706 4.170160 107.253689 0.000002 -0.000002 0.000001 -9.235597 -17.082814 80.313790 0.979600 -0.049172 88.783846 0.000002 0.000001 -0.000001 -10.019171 -21.702608 80.947038 2.834990 1.205258 62.935494 -0.000000 0.000001 0.000001 -0.000001 0.000000 0.000002 -0.000001 0.000000 0.000002 -0.000001 0.000001 0.000001 -0.000001 -0.000001 0.000000 -0.000000 -0.000001 -0.000002 -0.000001 -0.000001 0.000000 -0.000000 -0.000001 0.000000 -0.000002 0.000000 -0.000000 -0.000002 0.000000 -0.000000 -0.000002 0.000000 -0.000000 -0.000002 0.000000 -0.000000 -0.000002 0.000000 -0.000000 -0.000002 0.000000 -0.000000 -0.000002 0.000000 -0.000000 0.000001 0.000000 -0.000000 -0.000001 0.000000 -0.000001 
-3.384699 53.675392 269.757965 6.540094 0.924646 -15.257760 -0.000000 0.000000 -0.000000 -42.466701 -16.036155 14.620892 98.175753 -12.043598 0.609168 50.248493 -4.049006 4.961856 -0.000001 0.000000 -0.000000 -0.000001 -0.000000 0.000001 -108.876569 -30.186581 -9.242343 92.500159 19.692791 -15.393696 12.045992 -4.723134 1.100392 0.000000 0.000001 0.000000 -0.000001 -0.000002 -0.000001 19.512298 -2.613869 3.029714 4.159392 -4.582838 6.649847 4.134458 -4.461999 6.679762 -0.040368 1.334376 -0.584541 -0.040366 1.334380 -0.584559 0.000001 -0.000000 0.000001 -0.040245 1.334308 -0.584530 -0.040538 1.334410 -0.584541 -0.000001 0.000001 -0.000000 0.000001 -0.000000 0.000001 5.201487 -44.202198 16.396619 -45.625930 -29.251327 -34.777039 0.257462 -62.424207 4.761844 26.799267 43.769915 -87.695565 16.185491 29.318427 -23.146340 0.081695 -3.109424 31.629670 -0.000001 0.000000 -0.000001 0.016559 0.020167 -62.650764 3.417419 -3.814598 -92.040474 0.000001 -0.000000 -0.000001 -2.970166 0.498614 -81.883429 4.290152 -12.059102 -50.765456 0.000001 -0.000003 0.000000 -10.611394 20.760906 -73.187738 4.781192 -0.851387 -40.707470 0.000000 -0.000002 -0.000000 -8.914871 5.703442 -58.965283 -6.266454 -4.572896 -37.196193 0.000000 -0.000002 0.000001 0.000001 0.000001 -0.000000 0.000001 0.000001 -0.000000 0.000000 0.000001 0.000000 -0.000000 0.000001 0.000001 -0.000001 0.000001 -0.000001 -0.000000 0.000001 0.000001 -0.000001 -0.000000 0.000001 -12.721916 37.537842 -1.298912 -21.834329 4.902439 65.759859 -3.153164 85.835534 -29.122380 -84.991780 31.244055 2.540830 -6.666414 -8.246980 4.694890 31.152459 -25.871674 -9.425318 0.000003 -0.000000 -0.000001 -4.888017 -9.034001 55.242594 0.234225 0.161417 104.710304 0.000000 -0.000003 -0.000001 2.578522 -5.315549 71.485532 -14.334718 4.170142 107.253702 0.000001 -0.000001 0.000002 -9.235583 -17.082810 80.313763 0.979611 -0.049177 88.783826 0.000000 0.000002 0.000001 -10.019169 -21.702588 80.947024 2.834989 1.205254 62.935487 0.000001 0.000002 -0.000001 -0.000000 0.000000 0.000001 0.000000 -0.000000 0.000001 -0.000000 0.000000 0.000001 -0.000001 0.000002 0.000001 -0.000001 0.000002 0.000001 -0.000001 0.000002 0.000001 -0.000001 0.000001 0.000001 0.000002 -0.000001 0.000001 0.000002 -0.000001 0.000001 0.000002 -0.000001 0.000001 0.000002 -0.000001 0.000001 0.000002 -0.000001 0.000001 0.000002 -0.000001 0.000001 0.000002 -0.000001 0.000001 -0.000001 0.000000 0.000000 -0.000000 0.000000 -0.000000 
